<svg width="23" height="27" viewBox="0 0 23 27" fill="none" xmlns="http://www.w3.org/2000/svg">
<path d="M22.1474 18.503C22.0525 18.3887 21.9594 18.2744 21.868 18.1641C20.6108 16.6436 19.8502 15.7258 19.8502 11.4213C19.8502 9.1927 19.3171 7.36412 18.2662 5.9927C17.4914 4.97955 16.444 4.21098 15.0634 3.64298C15.0456 3.6331 15.0298 3.62014 15.0165 3.6047C14.52 1.94184 13.1611 0.828125 11.6285 0.828125C10.096 0.828125 8.73767 1.94184 8.2411 3.60298C8.22785 3.61785 8.2122 3.63041 8.19482 3.64013C4.9731 4.96641 3.40739 7.51098 3.40739 11.4196C3.40739 15.7258 2.64796 16.6436 1.38967 18.1624C1.29824 18.2727 1.2051 18.3847 1.11024 18.5013C0.865216 18.7968 0.709971 19.1563 0.662881 19.5373C0.61579 19.9182 0.678827 20.3047 0.84453 20.651C1.1971 21.3938 1.94853 21.855 2.80624 21.855H20.4571C21.3108 21.855 22.0571 21.3944 22.4108 20.655C22.5772 20.3086 22.6409 19.9218 22.5942 19.5404C22.5475 19.159 22.3924 18.799 22.1474 18.503ZM11.6285 26.4281C12.4543 26.4275 13.2644 26.2033 13.9731 25.7795C14.6817 25.3556 15.2625 24.7479 15.6537 24.0207C15.6721 23.9858 15.6812 23.9468 15.6801 23.9074C15.679 23.868 15.6677 23.8296 15.6473 23.7958C15.627 23.762 15.5982 23.7341 15.5639 23.7148C15.5296 23.6954 15.4908 23.6852 15.4514 23.6853H7.80682C7.76734 23.6851 7.72851 23.6952 7.69409 23.7145C7.65968 23.7339 7.63085 23.7618 7.61043 23.7956C7.59 23.8293 7.57867 23.8678 7.57754 23.9073C7.5764 23.9467 7.58551 23.9858 7.60396 24.0207C7.99512 24.7478 8.57576 25.3555 9.28431 25.7793C9.99285 26.2032 10.8029 26.4274 11.6285 26.4281Z" fill="black"/>
</svg>
