<svg width="23" height="23" viewBox="0 0 23 23" fill="none" xmlns="http://www.w3.org/2000/svg">
<g opacity="0.3" clip-path="url(#clip0_324_118)">
<path d="M20.7202 11.5L22.1128 13.2407C22.2476 13.4129 22.3524 13.6001 22.4272 13.8022C22.5021 14.0044 22.5396 14.2178 22.5396 14.4424C22.5396 14.667 22.5059 14.8804 22.4385 15.0825C22.3711 15.2847 22.2738 15.4681 22.1465 15.6328C22.0192 15.7975 21.8657 15.9398 21.686 16.0596C21.5063 16.1794 21.3117 16.2692 21.1021 16.3291L18.957 16.9243C18.972 17.3062 18.9907 17.6917 19.0132 18.0811C19.0356 18.4704 19.0506 18.8597 19.0581 19.249C19.0581 19.5186 19.0094 19.7694 18.9121 20.0015C18.8148 20.2336 18.6763 20.4357 18.4966 20.6079C18.3169 20.7801 18.111 20.9186 17.8789 21.0234C17.6468 21.1283 17.3923 21.1807 17.1152 21.1807C16.8831 21.1807 16.6548 21.1395 16.4302 21.0571L14.3525 20.271L13.1284 22.124C12.9487 22.401 12.7166 22.6144 12.4321 22.7642C12.1476 22.9139 11.8369 22.9925 11.5 23C11.1706 23 10.8636 22.9251 10.5791 22.7754C10.2946 22.6257 10.0588 22.4085 9.87158 22.124L8.64746 20.271L6.56982 21.0571C6.34521 21.1395 6.11686 21.1807 5.88477 21.1807C5.61523 21.1807 5.36442 21.132 5.13232 21.0347C4.90023 20.9373 4.69434 20.7988 4.51465 20.6191C4.33496 20.4395 4.19645 20.2336 4.09912 20.0015C4.00179 19.7694 3.94938 19.5186 3.94189 19.249C3.94189 18.8597 3.95312 18.4704 3.97559 18.0811C3.99805 17.6917 4.02051 17.3062 4.04297 16.9243L1.89795 16.3291C1.68083 16.2692 1.48617 16.1794 1.31396 16.0596C1.14176 15.9398 0.992025 15.7975 0.864746 15.6328C0.737467 15.4681 0.640137 15.2847 0.572754 15.0825C0.505371 14.8804 0.467936 14.667 0.460449 14.4424C0.460449 14.2253 0.497884 14.0156 0.572754 13.8135C0.647624 13.6113 0.752441 13.4204 0.887207 13.2407L2.27979 11.5L0.887207 9.75928C0.602702 9.40739 0.460449 9.00684 0.460449 8.55762C0.460449 8.33301 0.494141 8.11963 0.561523 7.91748C0.628906 7.71533 0.726237 7.5319 0.853516 7.36719C0.980794 7.20247 1.13053 7.06022 1.30273 6.94043C1.47493 6.82064 1.67334 6.73079 1.89795 6.6709L4.04297 6.07568C4.02799 5.69385 4.00928 5.30827 3.98682 4.91895C3.96436 4.52962 3.94938 4.1403 3.94189 3.75098C3.94189 3.48145 3.99056 3.23063 4.08789 2.99854C4.18522 2.76644 4.32373 2.56429 4.50342 2.39209C4.68311 2.21989 4.889 2.08138 5.12109 1.97656C5.35319 1.87174 5.60775 1.81934 5.88477 1.81934C6.11686 1.81934 6.34521 1.86051 6.56982 1.94287L8.64746 2.729L9.87158 0.875977C10.0513 0.598958 10.2834 0.385579 10.5679 0.23584C10.8524 0.0861003 11.1631 0.00748698 11.5 0C11.8294 0 12.1364 0.0748698 12.4209 0.224609C12.7054 0.374349 12.9412 0.591471 13.1284 0.875977L14.3525 2.729L16.4302 1.94287C16.6548 1.86051 16.8831 1.81934 17.1152 1.81934C17.3848 1.81934 17.6356 1.868 17.8677 1.96533C18.0998 2.06266 18.3057 2.20117 18.4854 2.38086C18.665 2.56055 18.8035 2.76644 18.9009 2.99854C18.9982 3.23063 19.0506 3.48145 19.0581 3.75098C19.0581 4.1403 19.0469 4.52962 19.0244 4.91895C19.002 5.30827 18.9795 5.69385 18.957 6.07568L21.1021 6.6709C21.3117 6.73079 21.5063 6.82064 21.686 6.94043C21.8657 7.06022 22.0155 7.20247 22.1353 7.36719C22.255 7.5319 22.3524 7.71533 22.4272 7.91748C22.5021 8.11963 22.5396 8.33301 22.5396 8.55762C22.5396 9.00684 22.3973 9.40739 22.1128 9.75928L20.7202 11.5ZM10.0625 15.644L16.4526 9.26514L15.1724 7.98486L10.0625 13.106L7.82764 10.8599L6.54736 12.1401L10.0625 15.644Z" fill="black"/>
</g>
<defs>
<clipPath id="clip0_324_118">
<rect width="23" height="23" fill="white"/>
</clipPath>
</defs>
</svg>
