<svg width="43" height="49" viewBox="0 0 43 49" fill="none" xmlns="http://www.w3.org/2000/svg">
<path fill-rule="evenodd" clip-rule="evenodd" d="M7.25 15C7.25 11.2207 8.75134 7.59612 11.4237 4.92373C14.0961 2.25133 17.7207 0.75 21.5 0.75C25.2793 0.75 28.9039 2.25133 31.5763 4.92373C34.2487 7.59612 35.75 11.2207 35.75 15H38.125C39.3848 15 40.593 15.5004 41.4838 16.3912C42.3746 17.282 42.875 18.4902 42.875 19.75V43.5C42.875 44.7598 42.3746 45.968 41.4838 46.8588C40.593 47.7495 39.3848 48.25 38.125 48.25H4.875C3.61522 48.25 2.40704 47.7495 1.51624 46.8588C0.625445 45.968 0.125 44.7598 0.125 43.5V19.75C0.125 18.4902 0.625445 17.282 1.51624 16.3912C2.40704 15.5004 3.61522 15 4.875 15H7.25ZM21.5 5.5C24.0196 5.5 26.4359 6.50089 28.2175 8.28248C29.9991 10.0641 31 12.4804 31 15H12C12 12.4804 13.0009 10.0641 14.7825 8.28248C16.5641 6.50089 18.9804 5.5 21.5 5.5ZM26.25 29.25C26.25 30.0838 26.0305 30.9029 25.6136 31.6249C25.1967 32.347 24.5971 32.9466 23.875 33.3635V36.375C23.875 37.0049 23.6248 37.609 23.1794 38.0544C22.734 38.4998 22.1299 38.75 21.5 38.75C20.8701 38.75 20.266 38.4998 19.8206 38.0544C19.3752 37.609 19.125 37.0049 19.125 36.375V33.3635C18.2195 32.8407 17.5118 32.0336 17.1117 31.0676C16.7116 30.1016 16.6414 29.0306 16.9121 28.0206C17.1827 27.0106 17.779 26.1182 18.6085 25.4816C19.438 24.8451 20.4544 24.5 21.5 24.5C22.7598 24.5 23.968 25.0004 24.8588 25.8912C25.7496 26.782 26.25 27.9902 26.25 29.25Z" fill="black"/>
</svg>
