<svg width="31" height="31" viewBox="0 0 31 31" fill="none" xmlns="http://www.w3.org/2000/svg">
<g opacity="0.3">
<path d="M14.5312 2.5835C9.08163 2.58866 6.26321 2.68683 4.47425 4.4745C2.68659 6.26475 2.58842 9.08187 2.58325 14.5314H8.9305C8.46605 13.9517 8.13249 13.2785 7.95271 12.5577C7.25909 9.77808 9.77784 7.25933 12.5575 7.95295C13.2963 8.13766 13.9654 8.47737 14.5312 8.93075V2.5835ZM2.58325 16.4689C2.58842 21.9172 2.68659 24.7356 4.47425 26.5245C6.2645 28.3135 9.08163 28.4104 14.5312 28.4168V18.2424C14.0217 19.2621 13.2382 20.1197 12.2686 20.7191C11.2989 21.3184 10.1815 21.6358 9.04158 21.6356C8.78466 21.6356 8.53825 21.5335 8.35658 21.3518C8.1749 21.1702 8.07283 20.9238 8.07283 20.6668C8.07283 20.4099 8.1749 20.1635 8.35658 19.9818C8.53825 19.8001 8.78466 19.6981 9.04158 19.6981C9.9866 19.6981 10.904 19.3793 11.6454 18.7933C12.3868 18.2073 12.9088 17.3884 13.1271 16.4689H2.58325ZM16.4687 28.4168C21.9169 28.4104 24.7353 28.3135 26.5243 26.5245C28.3133 24.7369 28.4101 21.9172 28.4166 16.4689H17.8727C18.091 17.3884 18.6131 18.2073 19.3545 18.7933C20.0959 19.3793 21.0132 19.6981 21.9583 19.6981C22.2152 19.6981 22.4616 19.8001 22.6433 19.9818C22.8249 20.1635 22.927 20.4099 22.927 20.6668C22.927 20.9238 22.8249 21.1702 22.6433 21.3518C22.4616 21.5335 22.2152 21.6356 21.9583 21.6356C20.8183 21.6358 19.7009 21.3184 18.7313 20.7191C17.7616 20.1197 16.9782 19.2621 16.4687 18.2424V28.4168ZM28.4166 14.5314C28.4101 9.08187 28.3133 6.26345 26.5243 4.4745C24.7366 2.68683 21.9169 2.58866 16.4687 2.5835V8.93075C17.048 8.46649 17.7208 8.13295 18.441 7.95295C21.222 7.25804 23.742 9.77679 23.0458 12.5577C22.8664 13.2783 22.5333 13.9516 22.0693 14.5314H28.4166Z" fill="black"/>
<path d="M12.0873 9.83366C12.7851 10.0079 13.4047 10.4105 13.8475 10.9773C14.2903 11.5442 14.5309 12.2428 14.5311 12.9621V14.5315H12.9617C12.2424 14.5313 11.5438 14.2907 10.977 13.8479C10.4102 13.4051 10.0076 12.7855 9.83332 12.0876C9.75588 11.7763 9.76029 11.4502 9.84611 11.1411C9.93193 10.832 10.0962 10.5503 10.3231 10.3234C10.55 10.0966 10.8316 9.93227 11.1408 9.84645C11.4499 9.76063 11.7759 9.75622 12.0873 9.83366ZM16.4686 12.9621V14.5315H18.038C19.5169 14.5315 20.8073 13.524 21.1664 12.0876C21.2439 11.7762 21.2395 11.4499 21.1537 11.1407C21.0678 10.8314 20.9033 10.5496 20.6763 10.3227C20.4493 10.0958 20.1674 9.93155 19.8581 9.84585C19.5488 9.76015 19.2226 9.75595 18.9111 9.83366C18.2135 10.0082 17.5942 10.4108 17.1517 10.9777C16.7091 11.5445 16.4687 12.243 16.4686 12.9621Z" fill="black"/>
</g>
</svg>
