<svg width="21" height="17" viewBox="0 0 21 17" fill="none" xmlns="http://www.w3.org/2000/svg">
<path d="M0.4375 13.8906C0.4375 14.5578 0.702538 15.1977 1.17431 15.6694C1.64608 16.1412 2.28594 16.4062 2.95312 16.4062H18.0469C18.7141 16.4062 19.3539 16.1412 19.8257 15.6694C20.2975 15.1977 20.5625 14.5578 20.5625 13.8906V6.97266H0.4375V13.8906ZM3.40234 10.4766C3.40234 10.1191 3.54433 9.77636 3.79706 9.52363C4.0498 9.27089 4.39258 9.12891 4.75 9.12891H6.90625C7.26367 9.12891 7.60645 9.27089 7.85919 9.52363C8.11192 9.77636 8.25391 10.1191 8.25391 10.4766V11.375C8.25391 11.7324 8.11192 12.0752 7.85919 12.3279C7.60645 12.5807 7.26367 12.7227 6.90625 12.7227H4.75C4.39258 12.7227 4.0498 12.5807 3.79706 12.3279C3.54433 12.0752 3.40234 11.7324 3.40234 11.375V10.4766ZM18.0469 0.59375H2.95312C2.28594 0.59375 1.64608 0.858788 1.17431 1.33056C0.702538 1.80233 0.4375 2.44219 0.4375 3.10938V4.27734H20.5625V3.10938C20.5625 2.44219 20.2975 1.80233 19.8257 1.33056C19.3539 0.858788 18.7141 0.59375 18.0469 0.59375Z" fill="black"/>
</svg>
