<svg width="14" height="18" viewBox="0 0 14 18" fill="none" xmlns="http://www.w3.org/2000/svg">
<path d="M11.6875 5.8752H7.625V11.5393C7.625 11.705 7.55915 11.864 7.44194 11.9812C7.32473 12.0984 7.16576 12.1643 7 12.1643C6.83424 12.1643 6.67527 12.0984 6.55806 11.9812C6.44085 11.864 6.375 11.705 6.375 11.5393V5.8752H2.3125C1.73253 5.87582 1.17649 6.10649 0.766389 6.51659C0.356288 6.92669 0.12562 7.48273 0.125 8.0627V15.5627C0.12562 16.1427 0.356288 16.6987 0.766389 17.1088C1.17649 17.5189 1.73253 17.7496 2.3125 17.7502H11.6875C12.2675 17.7496 12.8235 17.5189 13.2336 17.1088C13.6437 16.6987 13.8744 16.1427 13.875 15.5627V8.0627C13.8744 7.48273 13.6437 6.92669 13.2336 6.51659C12.8235 6.10649 12.2675 5.87582 11.6875 5.8752ZM7.625 2.38418L9.6832 4.442C9.80137 4.55426 9.95871 4.61592 10.1217 4.61383C10.2847 4.61175 10.4404 4.54608 10.5556 4.43083C10.6709 4.31557 10.7365 4.15986 10.7386 3.99689C10.7407 3.83391 10.6791 3.67657 10.5668 3.5584L7.4418 0.433402C7.3246 0.31628 7.16569 0.250488 7 0.250488C6.83431 0.250488 6.6754 0.31628 6.5582 0.433402L3.4332 3.5584C3.32094 3.67657 3.25928 3.83391 3.26137 3.99689C3.26345 4.15986 3.32912 4.31557 3.44437 4.43083C3.55962 4.54608 3.71534 4.61175 3.87831 4.61383C4.04129 4.61592 4.19863 4.55426 4.3168 4.442L6.375 2.38418V5.8752H7.625V2.38418Z" fill="black"/>
</svg>
