<svg viewBox="0 0 16 16" fill="none" xmlns="http://www.w3.org/2000/svg">
<path d="M15.6851 5.88378C15.6271 5.69936 15.5152 5.53654 15.3638 5.41625C15.2124 5.29596 15.0285 5.2237 14.8358 5.20878L10.655 4.84737C10.6297 4.84488 10.6056 4.8356 10.5851 4.82049C10.5647 4.80539 10.5488 4.78503 10.539 4.76159L8.90562 0.869088C8.82997 0.691517 8.70379 0.540103 8.54278 0.433676C8.38176 0.32725 8.193 0.270508 7.99999 0.270508C7.80698 0.270508 7.61823 0.32725 7.45721 0.433676C7.29619 0.540103 7.17001 0.691517 7.09437 0.869088L5.46101 4.76159C5.45122 4.78503 5.43527 4.80539 5.41484 4.82049C5.39441 4.8356 5.37027 4.84488 5.34499 4.84737L1.16421 5.20878C0.971445 5.2237 0.787553 5.29596 0.636187 5.41625C0.484822 5.53654 0.372906 5.69936 0.314835 5.88378C0.253332 6.06845 0.24796 6.26721 0.299397 6.45494C0.350835 6.64267 0.456772 6.81093 0.603819 6.93846L3.77562 9.70526C3.79504 9.72251 3.80946 9.74467 3.81738 9.76941C3.8253 9.79415 3.82641 9.82056 3.82062 9.84588L2.86718 13.9599C2.82273 14.1493 2.83541 14.3476 2.90362 14.5298C2.97182 14.712 3.09249 14.8699 3.25038 14.9836C3.40583 15.0983 3.59208 15.1638 3.7851 15.1715C3.97812 15.1793 4.16903 15.129 4.33319 15.0272L7.92687 12.8475C7.94799 12.8345 7.97234 12.8275 7.99718 12.8275C8.02202 12.8275 8.04637 12.8345 8.06749 12.8475L11.6612 15.0272C11.827 15.1288 12.0193 15.1789 12.2136 15.1713C12.4079 15.1637 12.5957 15.0987 12.7531 14.9845C12.9105 14.8704 13.0306 14.7121 13.0982 14.5297C13.1658 14.3474 13.1778 14.1491 13.1328 13.9599L12.1822 9.84448C12.1764 9.81916 12.1775 9.79274 12.1854 9.768C12.1933 9.74326 12.2078 9.7211 12.2272 9.70385L15.399 6.93706C15.5453 6.8093 15.6505 6.64113 15.7014 6.45371C15.7523 6.26629 15.7467 6.06799 15.6851 5.88378ZM14.8414 6.30003L11.6696 9.06682C11.5345 9.18442 11.434 9.33666 11.3789 9.50715C11.3239 9.67764 11.3165 9.85991 11.3574 10.0343L12.308 14.1497C12.3151 14.1774 12.3135 14.2065 12.3036 14.2332C12.2937 14.26 12.2758 14.2831 12.2525 14.2995C12.2313 14.3164 12.2054 14.3262 12.1783 14.3273C12.1512 14.3284 12.1245 14.3209 12.102 14.3058L8.50835 12.1261C8.35514 12.033 8.17929 11.9837 7.99999 11.9837C7.8207 11.9837 7.64485 12.033 7.49163 12.1261L3.89796 14.3058C3.87547 14.3209 3.84875 14.3284 3.82169 14.3273C3.79463 14.3262 3.76863 14.3164 3.74749 14.2995C3.72413 14.2831 3.70631 14.26 3.69639 14.2332C3.68647 14.2065 3.68492 14.1774 3.69194 14.1497L4.64257 10.0343C4.6835 9.85991 4.67605 9.67764 4.62104 9.50715C4.56603 9.33666 4.46553 9.18442 4.33038 9.06682L1.15859 6.30003C1.13689 6.28158 1.12131 6.25698 1.1139 6.22948C1.1065 6.20199 1.10761 6.17289 1.1171 6.14604C1.1242 6.1193 1.1396 6.09551 1.16108 6.07807C1.18255 6.06064 1.20901 6.05046 1.23663 6.04901L5.41812 5.6876C5.59713 5.67235 5.76855 5.6084 5.91381 5.50268C6.05907 5.39695 6.17263 5.25349 6.24218 5.08784L7.87554 1.19534C7.88689 1.17118 7.90489 1.15075 7.92743 1.13644C7.94997 1.12213 7.97611 1.11454 8.0028 1.11454C8.0295 1.11454 8.05564 1.12213 8.07818 1.13644C8.10072 1.15075 8.11871 1.17118 8.13007 1.19534L9.7578 5.08784C9.82713 5.2531 9.94026 5.39629 10.085 5.50199C10.2297 5.60768 10.4005 5.67186 10.5791 5.6876L14.7605 6.04901C14.7882 6.05046 14.8146 6.06064 14.8361 6.07807C14.8576 6.09551 14.873 6.1193 14.8801 6.14604C14.8899 6.17262 14.8914 6.20154 14.8845 6.22901C14.8776 6.25649 14.8626 6.28124 14.8414 6.30003Z" fill="black"/>
</svg>
