<svg width="64" height="64" viewBox="0 0 64 64" fill="none" xmlns="http://www.w3.org/2000/svg">
<path d="M5.9 61.9999C2.6 61.9999 1.1 59.5999 2.6 56.6999L29.3 4.1999C30.8 1.2999 33.2 1.2999 34.7 4.1999L61.4 56.6999C62.9 59.5999 61.4 61.9999 58.1 61.9999H5.9Z" fill="#FFCE31"/>
<path d="M27.8 23.6002L30.6 42.1002C30.9 43.9002 33.2 43.9002 33.5 42.1002L36.2 23.6002C36.7 16.4002 27.3 16.4002 27.8 23.6002Z" fill="#231F20"/>
<path d="M32 53.8004C34.3196 53.8004 36.2 51.92 36.2 49.6004C36.2 47.2808 34.3196 45.4004 32 45.4004C29.6804 45.4004 27.8 47.2808 27.8 49.6004C27.8 51.92 29.6804 53.8004 32 53.8004Z" fill="#231F20"/>
</svg>
