<svg width="73" height="73" viewBox="0 0 73 73" fill="none" xmlns="http://www.w3.org/2000/svg">
<path d="M61.0645 27.6052C62.5354 29.0798 63.9225 30.7588 65.1343 32.5108C65.3384 32.8068 65.4823 33.1401 65.5577 33.4917C65.6331 33.8433 65.6385 34.2063 65.5736 34.5599C65.5087 34.9136 65.3748 35.251 65.1794 35.553C64.9841 35.8549 64.7313 36.1154 64.4353 36.3196C64.1393 36.5238 63.806 36.6676 63.4544 36.743C63.1028 36.8184 62.7398 36.8238 62.3861 36.7589C62.0324 36.694 61.695 36.5601 61.3931 36.3647C61.0912 36.1694 60.8307 35.9166 60.6265 35.6206C58.2137 32.0936 55.0534 29.1417 51.3702 26.9748C47.6871 24.8078 43.5717 23.4792 39.3168 23.0833C35.0619 22.6874 30.772 23.2341 26.7524 24.6843C22.7327 26.1346 19.082 28.4529 16.06 31.4742C14.892 32.6495 13.724 34.073 12.6582 35.6096C12.4533 35.9051 12.1922 36.1574 11.8898 36.352C11.5874 36.5466 11.2496 36.6797 10.8958 36.7438C10.5419 36.8078 10.1789 36.8016 9.8275 36.7253C9.47608 36.6491 9.14311 36.5044 8.8476 36.2995C8.25081 35.8856 7.84285 35.2517 7.71348 34.5371C7.64942 34.1832 7.65568 33.8202 7.73191 33.4688C7.80814 33.1174 7.95284 32.7844 8.15775 32.4889C9.39875 30.7004 10.7712 29.0214 12.191 27.6052C15.4 24.396 19.2098 21.8504 23.4026 20.1136C27.5955 18.3768 32.0894 17.4829 36.6278 17.4829C41.1661 17.4829 45.66 18.3768 49.8529 20.1136C54.0457 21.8504 57.8555 24.396 61.0645 27.6052ZM19.9947 34.4964C24.1285 30.3643 29.6526 27.9193 35.4907 27.6379C41.3288 27.3565 47.0625 29.2589 51.5745 32.9743C49.6911 33.3211 47.9245 34.3978 46.7784 36.2119C44.6581 34.7683 42.2544 33.7934 39.7276 33.352C37.2008 32.9107 34.609 33.0131 32.1249 33.6524C29.6407 34.2917 27.3215 35.4533 25.3217 37.0597C23.3219 38.666 21.6876 40.6802 20.5276 42.968C20.1893 43.5969 19.6186 44.0686 18.9373 44.2827C18.2561 44.4967 17.5181 44.436 16.881 44.1136C16.2438 43.7912 15.7578 43.2326 15.5267 42.557C15.2956 41.8813 15.3377 41.1421 15.6439 40.497C16.7657 38.2781 18.2345 36.2524 19.9947 34.4964ZM35.7007 58.309L39.6244 50.4505C39.102 49.9982 38.4831 49.6713 37.8149 49.4948C37.1468 49.3183 36.4472 49.2969 35.7695 49.4321C35.0919 49.5674 34.4541 49.8559 33.905 50.2754C33.3559 50.6949 32.9099 51.2344 32.6012 51.8526C32.2925 52.4709 32.1292 53.1515 32.1239 53.8425C32.1185 54.5336 32.2712 55.2167 32.5703 55.8396C32.8693 56.4626 33.3069 57.0089 33.8494 57.4369C34.392 57.8649 35.0252 58.1632 35.7007 58.309ZM41.913 45.8625L44.3731 40.9423C41.4896 39.2159 38.1122 38.502 34.7768 38.914C31.4414 39.3259 28.3392 40.8401 25.9625 43.2162C24.6354 44.557 23.5707 46.1342 22.8235 47.8663C22.5719 48.5238 22.5833 49.253 22.8553 49.9023C23.1272 50.5516 23.6389 51.0712 24.284 51.3531C24.9291 51.635 25.6579 51.6575 26.3192 51.416C26.9805 51.1745 27.5233 50.6876 27.8349 50.0563C28.3313 48.9248 29.0029 47.9174 29.8315 47.0889C33.1165 43.8039 38.1863 43.3987 41.913 45.8661V45.8625ZM49.6473 38.5223L36.8869 64.065C36.6078 64.6221 36.4759 65.2413 36.5038 65.8637C36.5317 66.4861 36.7184 67.091 37.0463 67.6208C37.3741 68.1507 37.8321 68.5877 38.3767 68.8905C38.9213 69.1932 39.5343 69.3515 40.1573 69.3502H65.6927C66.3154 69.3508 66.928 69.1921 67.472 68.8891C68.0161 68.5862 68.4736 68.149 68.801 67.6193C69.1284 67.0896 69.3149 66.4849 69.3426 65.8628C69.3703 65.2407 69.2384 64.6218 68.9595 64.065L56.1845 38.5187C55.8817 37.9113 55.4157 37.4003 54.8386 37.0432C54.2616 36.686 53.5963 36.4968 52.9177 36.4968C52.2391 36.4968 51.5739 36.686 50.9968 37.0432C50.4197 37.4003 49.9537 37.9113 49.651 38.5187L49.6473 38.5223ZM54.7391 45.607V56.5643C54.7391 57.0483 54.5468 57.5125 54.2045 57.8548C53.8623 58.197 53.3981 58.3893 52.9141 58.3893C52.43 58.3893 51.9658 58.197 51.6236 57.8548C51.2813 57.5125 51.0891 57.0483 51.0891 56.5643V45.607C51.0891 45.123 51.2813 44.6588 51.6236 44.3165C51.9658 43.9743 52.43 43.782 52.9141 43.782C53.3981 43.782 53.8623 43.9743 54.2045 44.3165C54.5468 44.6588 54.7391 45.123 54.7391 45.607ZM52.9141 65.6966C52.43 65.6966 51.9658 65.5043 51.6236 65.1621C51.2813 64.8198 51.0891 64.3556 51.0891 63.8716C51.0891 63.3876 51.2813 62.9234 51.6236 62.5811C51.9658 62.2389 52.43 62.0466 52.9141 62.0466C53.3981 62.0466 53.8623 62.2389 54.2045 62.5811C54.5468 62.9234 54.7391 63.3876 54.7391 63.8716C54.7391 64.3556 54.5468 64.8198 54.2045 65.1621C53.8623 65.5043 53.3981 65.6966 52.9141 65.6966Z" fill="black"/>
</svg>
